<svg width="226" height="70" viewBox="0 0 226 70" fill="none" xmlns="http://www.w3.org/2000/svg">
<path d="M172.336 49.7468C172.138 50.299 171.927 50.8414 171.697 51.3903C171.924 50.8414 172.138 50.3056 172.336 49.7468Z" fill="#263140"/>
<path d="M174.15 42.0388C174.084 42.6272 173.998 43.209 173.896 43.7907C173.995 43.209 174.081 42.6272 174.15 42.0388Z" fill="#263140"/>
<path d="M174.396 36.5004C174.396 35.935 174.35 35.373 174.308 34.8076C174.354 35.3565 174.383 35.9186 174.396 36.5004Z" fill="#263140"/>
<path d="M174.403 38.5024C174.403 38.0192 174.403 37.5327 174.403 37.0496C174.42 37.5327 174.416 38.0159 174.403 38.5024Z" fill="#263140"/>
<path d="M226 15.3658V42.9133C226 56.9746 213.186 68.8502 198.014 68.8502C187.899 68.8502 178.835 63.5418 173.936 55.8242C177.34 49.4805 178.855 41.9075 178.216 34.203C177.574 26.4065 174.769 19.1556 170.265 13.5547C170.691 11.2561 171.909 9.17866 173.708 7.68262C175.507 6.18658 177.774 5.36623 180.116 5.36378C182.772 5.36726 185.318 6.42226 187.195 8.29735C189.073 10.1724 190.129 12.7145 190.132 15.3658V42.9133C190.132 45.6611 193.572 48.8527 198.011 48.8527C202.021 48.8527 205.955 45.9109 205.955 42.9133V15.3658C205.957 14.0507 206.217 12.7488 206.723 11.5344C207.228 10.32 207.968 9.21686 208.901 8.28804C209.833 7.35922 210.94 6.62292 212.158 6.12116C213.375 5.61941 214.68 5.36205 215.997 5.36378C218.651 5.37073 221.194 6.42728 223.068 8.30198C224.943 10.1767 225.997 12.7167 226 15.3658Z" fill="#263140"/>
<path d="M52.0312 20.4932C49.4063 25.6389 48.0452 31.3341 48.0604 37.1085C48.0513 44.5261 50.2995 51.7714 54.5071 57.885V58.4437C54.5045 61.0956 53.4481 63.6382 51.5697 65.5134C49.6914 67.3885 47.1445 68.4431 44.4881 68.4458C41.8322 68.4423 39.2862 67.3873 37.4086 65.5122C35.5309 63.6371 34.4749 61.0951 34.4723 58.4437V47.1072H20.0413V58.4437C20.0396 61.0953 18.9839 63.6379 17.106 65.5132C15.2282 67.3884 12.6817 68.4431 10.0256 68.4458C7.36971 68.4423 4.82369 67.3873 2.94603 65.5122C1.06837 63.6371 0.0124096 61.0951 0.00979614 58.4437V15.77C0.0132808 13.1192 1.06963 10.578 2.9472 8.70365C4.82476 6.82927 7.37028 5.77472 10.0256 5.77124C12.6811 5.77385 15.2271 6.82812 17.1049 8.70268C18.9826 10.5772 20.0387 13.1189 20.0413 15.77V27.1065H34.4723V15.77C34.4758 13.1192 35.5322 10.578 37.4097 8.70365C39.2873 6.82927 41.8328 5.77472 44.4881 5.77124C47.1439 5.77385 49.6903 6.82802 51.5686 8.70248C53.4469 10.577 54.5037 13.1186 54.5071 15.77V16.3386C53.591 17.6675 52.7639 19.0554 52.0312 20.4932Z" fill="#263140"/>
<path d="M141.116 25.6833C140.672 25.6833 140.221 25.6833 139.766 25.6833C140.336 25.6833 140.899 25.6833 141.452 25.6833H141.116ZM157.131 66.3685C157.562 66.1812 157.987 65.9872 158.402 65.7802C157.987 65.984 157.562 66.1812 157.131 66.3685ZM171.697 51.377C171.927 50.8412 172.138 50.2989 172.336 49.7336C172.138 50.3055 171.924 50.8412 171.697 51.377ZM173.896 43.7908C173.998 43.2091 174.084 42.6273 174.15 42.0389C174.081 42.6273 173.995 43.2091 173.896 43.7908ZM174.308 34.7913C174.351 35.3567 174.38 35.9187 174.397 36.4841C174.384 35.9187 174.354 35.3567 174.308 34.7913ZM174.41 37.0494C174.41 37.5326 174.41 38.0191 174.41 38.5022C174.416 38.0158 174.42 37.5326 174.41 37.0494Z" fill="#263140"/>
<path d="M174.41 37.0494C174.354 31.1979 172.863 25.4493 170.067 20.3059C169.349 19.0157 168.54 17.7778 167.647 16.6016C167.282 16.1283 166.91 15.6648 166.518 15.2145C164.765 13.1829 162.72 11.4218 160.45 9.98837C159.781 9.56399 159.091 9.17345 158.382 8.81823C157.753 8.48954 157.105 8.20029 156.449 7.92748C153.382 6.68668 150.125 5.97641 146.819 5.82715C143.177 5.77127 139.213 5.80413 135.479 5.73839C131.367 5.77126 127.192 5.56091 123.119 6.09338C118.428 7.23394 115.237 11.806 115.59 16.6114C123.962 28.51 123.798 45.9503 115.59 57.6221C115.483 59.3975 115.822 61.1715 116.577 62.7825C117.396 64.4793 118.677 65.9111 120.274 66.9135C121.871 67.9159 123.719 68.4481 125.605 68.4491H133.596C144.409 68.4491 149.729 68.5641 152.531 67.933C157.947 66.6336 162.839 63.7207 166.557 59.581C166.887 59.2261 167.19 58.8612 167.489 58.4865C167.789 58.1118 168.029 57.7963 168.292 57.4446C172.556 51.584 174.512 44.2477 174.41 37.0494ZM154.583 38.1439C154.385 40.287 153.924 42.4662 152.752 44.2937C152.383 44.8774 151.941 45.411 151.435 45.8813C150.448 46.7589 149.277 47.4057 148.007 47.7745C143.964 48.9512 139.796 48.4319 135.614 48.4582V25.7786C137.001 25.7786 138.397 25.7227 139.779 25.703C145.094 25.565 151.616 25.8575 153.667 31.741C154.413 33.7891 154.725 35.9694 154.583 38.1439Z" fill="#263140"/>
<path d="M103.43 0.952637C103.525 1.07199 103.609 1.19961 103.681 1.33393C103.609 1.19936 103.525 1.07171 103.43 0.952637ZM66.0211 1.7678C66.0625 1.61693 66.1188 1.47049 66.189 1.33064C66.1174 1.46987 66.0611 1.61645 66.0211 1.7678Z" fill="#263140"/>
<path d="M115.576 24.9964C113.353 19.4255 109.653 14.5637 104.872 10.9317C104.899 10.7542 103.97 2.42197 103.967 2.24119C103.901 1.62896 103.611 1.06265 103.152 0.651243C102.693 0.239836 102.098 0.0123902 101.481 0.0126616C100.332 -0.286446 94.3661 4.80824 93.3849 5.30784C87.8555 3.85504 82.0436 3.85504 76.5142 5.30784C75.487 4.77865 69.6 -0.260151 68.418 0.0126616C67.8013 0.0137573 67.2065 0.241596 66.7474 0.652667C66.2882 1.06374 65.9969 1.62925 65.9289 2.24119C65.9289 2.42525 65.0103 10.7444 65.0234 10.9284C40.2178 29.5421 53.424 69.9939 84.9562 69.9939C107.885 70.4443 124.305 45.6742 115.576 24.9964ZM84.9562 49.9768C68.0328 49.6777 67.9801 24.5822 84.8903 24.2075C101.883 24.4474 101.945 49.6842 84.9562 49.9932V49.9768Z" fill="#263140"/>
</svg>
