<svg width="42" height="42" viewBox="0 0 42 42" fill="none" xmlns="http://www.w3.org/2000/svg">
<circle cx="21" cy="21" r="21" fill="#F29D52"/>
<path d="M31.54 15.42C31.4212 14.9454 31.1792 14.5106 30.8386 14.1594C30.498 13.8082 30.0707 13.5532 29.6 13.42C27.88 13 21 13 21 13C21 13 14.12 13 12.4 13.46C11.9292 13.5932 11.5019 13.8482 11.1613 14.1994C10.8207 14.5506 10.5787 14.9854 10.46 15.46C10.1452 17.2056 9.9912 18.9763 9.99996 20.75C9.98874 22.537 10.1427 24.3213 10.46 26.08C10.5909 26.5398 10.8383 26.9581 11.1781 27.2945C11.5179 27.6308 11.9388 27.8738 12.4 28C14.12 28.46 21 28.46 21 28.46C21 28.46 27.88 28.46 29.6 28C30.0707 27.8668 30.498 27.6118 30.8386 27.2606C31.1792 26.9094 31.4212 26.4746 31.54 26C31.8523 24.2676 32.0063 22.5103 32 20.75C32.0112 18.963 31.8572 17.1787 31.54 15.42Z" fill="white"/>
<path d="M18.75 24.02L24.5 20.75L18.75 17.48V24.02Z" fill="#F29D52"/>
</svg>
